# xmcd
#
# Track frame offsets:
#	150
#	17929
#	36463
#	53119
#	72704
#	87823
#	104290
#	122854
#	141194
#	162085
#	178441
#	196557
#	214332
#	235826
#	258607
#
# Disc length: 3683 seconds
#
# Revision: 2
# Processed by: cddbd v1.5.2PL0 Copyright (c) Steve Scherf et al.
# Submitted via: audiograbber 1.83.01
#
DISCID=e20e610f
DTITLE=Various Artist - MM6391
DYEAR=1900
DGENRE=Karaoke
TTITLE0=Jackson, Alan And Buffett, Jimmy - It's Five O'Clock Somewhere
TTITLE1=McBride, Martina - This One's For The Girls
TTITLE2=Jewell, Buddy - Help Pour Out The Rain (Lacey's Song)
TTITLE3=Urban, Keith - Who Wouldn't Wanna Be Me
TTITLE4=McGraw, Tim - Real Good Man
TTITLE5=Loveless, Patty - Lovin' All Night
TTITLE6=Cable, Chris - Chicks Dig It
TTITLE7=Allan, Gary - Tough Little Boys
TTITLE8=Dixie Chicks - Godspeed (Sweet Dreams)
TTITLE9=Worley, Darryl - Tennessee River Run
TTITLE10=Green, Pat - Wave On Wave
TTITLE11=Rascal Flatts - I Melt
TTITLE12=Austin, Sherrie - Streets Of Heaven
TTITLE13=Shelton, Blake - Playboys Of The Southwestern World
TTITLE14=Gearing, Ashley - Can You Hear Me When I Talk To You
EXTD=
EXTT0=
EXTT1=
EXTT2=
EXTT3=
EXTT4=
EXTT5=
EXTT6=
EXTT7=
EXTT8=
EXTT9=
EXTT10=
EXTT11=
EXTT12=
EXTT13=
EXTT14=
PLAYORDER=
